<?xml version="1.0" encoding="UTF-8"?>
<!DOCTYPE svg  PUBLIC '-//W3C//DTD SVG 1.1//EN'  'http://www.w3.org/Graphics/SVG/1.1/DTD/svg11.dtd'>
<svg enable-background="new 0 0 56.693 56.693" version="1.1" viewBox="0 0 56.693 56.693" xml:space="preserve" xmlns="http://www.w3.org/2000/svg"><path d="m28.347 5.157c-13.6 0-24.625 11.027-24.625 24.625 0 13.6 11.025 24.623 24.625 24.623s24.625-11.023 24.625-24.623c0-13.598-11.026-24.625-24.625-24.625zm-9.443 32.254c-4.281 0-7.751-3.467-7.751-7.748 0-4.283 3.47-7.75 7.751-7.75s7.75 3.467 7.75 7.75c-1e-3 4.281-3.469 7.748-7.75 7.748zm19.447 0c-4.281 0-7.75-3.467-7.75-7.748 0-4.283 3.469-7.75 7.75-7.75 4.279 0 7.75 3.467 7.75 7.75 0 4.281-3.471 7.748-7.75 7.748z"/></svg>
