<?xml version="1.0" encoding="UTF-8"?>
<!DOCTYPE svg  PUBLIC '-//W3C//DTD SVG 1.1//EN'  'http://www.w3.org/Graphics/SVG/1.1/DTD/svg11.dtd'>
<svg clip-rule="evenodd" fill-rule="evenodd" stroke-linejoin="round" stroke-miterlimit="2" version="1.1" viewBox="0 0 512 512" xml:space="preserve" xmlns="http://www.w3.org/2000/svg"><path d="m449.45 0c34.525 0 62.554 28.03 62.554 62.554v386.89c0 34.524-28.03 62.554-62.554 62.554h-386.89c-34.524 0-62.554-28.03-62.554-62.554v-386.89c0-34.524 28.029-62.554 62.554-62.554h386.89zm-288.98 423.28v-225.72h-75.04v225.72h75.04zm270.54 0v-129.44c0-69.333-37.018-101.59-86.381-101.59-39.804 0-57.634 21.891-67.617 37.266v-31.958h-75.021c0.995 21.181 0 225.72 0 225.72h75.02v-126.06c0-6.748 0.486-13.492 2.474-18.315 5.414-13.475 17.767-27.434 38.494-27.434 27.135 0 38.007 20.707 38.007 51.037v120.77h75.024zm-307.55-334.56c-25.674 0-42.448 16.879-42.448 39.002 0 21.658 16.264 39.002 41.455 39.002h0.484c26.165 0 42.452-17.344 42.452-39.002-0.485-22.092-16.241-38.954-41.943-39.002z"/></svg>
